<svg id="visual" viewBox="0 0 900 600" width="900" height="600" xmlns="http://www.w3.org/2000/svg" xmlns:xlink="http://www.w3.org/1999/xlink" version="1.1"><g><g transform="translate(414 324)"><path d="M9.5 -11.8C12 -9.2 13.5 -5.9 15.3 -1.9C17 2.2 18.9 7.1 17.6 10.8C16.3 14.5 11.7 17 6.7 19.2C1.7 21.4 -3.7 23.2 -6.2 20.7C-8.7 18.3 -8.3 11.4 -11.3 6.4C-14.4 1.4 -21 -1.7 -20.9 -3.9C-20.7 -6 -13.8 -7.1 -9.2 -9.4C-4.6 -11.6 -2.3 -14.9 0.6 -15.6C3.5 -16.3 7 -14.4 9.5 -11.8Z" fill="#cfcfcf"></path></g><g transform="translate(23 15)"><path d="M8.8 -9.7C12.6 -7.2 18 -5.6 20.2 -2.2C22.4 1.2 21.5 6.6 18.3 9.1C15.1 11.6 9.5 11.3 5.7 10.3C1.9 9.4 -0.2 7.9 -2.1 6.8C-4 5.7 -5.7 5 -6.6 3.7C-7.6 2.4 -7.7 0.5 -7.4 -1.4C-7.2 -3.2 -6.5 -5 -5.1 -8C-3.8 -11 -1.9 -15.1 0.3 -15.4C2.4 -15.7 4.9 -12.2 8.8 -9.7Z" fill="#cfcfcf"></path></g><g transform="translate(322 212)"><path d="M6 -8.4C8.6 -5.1 12 -3.9 12.3 -2.2C12.5 -0.5 9.6 1.7 7.9 4.6C6.3 7.5 5.8 11.2 3.5 13.9C1.2 16.6 -3.1 18.4 -7.4 17.8C-11.6 17.3 -16 14.5 -16.4 10.9C-16.8 7.2 -13.2 2.8 -12.3 -2.1C-11.4 -7 -13.1 -12.4 -11.5 -15.9C-9.9 -19.5 -4.9 -21.3 -1.6 -19.4C1.7 -17.5 3.5 -11.8 6 -8.4Z" fill="#cfcfcf"></path></g><g transform="translate(600 324)"><path d="M8.5 -10.4C11.1 -8 13.2 -5.4 14.6 -1.9C16 1.6 16.8 5.8 15.1 8.6C13.4 11.4 9.2 12.7 4.9 14.9C0.6 17 -3.9 20 -6.1 18.5C-8.4 16.9 -8.4 10.9 -8.2 6.9C-8 2.8 -7.6 0.8 -8.4 -2.7C-9.2 -6.1 -11.2 -10.9 -10 -13.5C-8.8 -16 -4.4 -16.3 -0.7 -15.4C3 -14.6 6 -12.7 8.5 -10.4Z" fill="#cfcfcf"></path></g><g transform="translate(485 429)"><path d="M7.4 -9.6C9.9 -6.7 12.4 -4.7 12.1 -2.7C11.7 -0.8 8.5 1.1 6.9 4.1C5.3 7.2 5.5 11.3 3.9 12.8C2.3 14.3 -1 13 -2.8 11C-4.6 8.9 -4.9 6 -6.5 3.6C-8 1.2 -10.7 -0.6 -12.3 -3.9C-13.8 -7.3 -14.1 -12.2 -11.8 -15.2C-9.6 -18.2 -4.8 -19.2 -1.2 -17.8C2.5 -16.4 4.9 -12.6 7.4 -9.6Z" fill="#cfcfcf"></path></g><g transform="translate(792 321)"><path d="M6 -7.6C7.4 -6 7.9 -3.7 9 -1C10.1 1.6 11.8 4.7 11.1 6.8C10.4 8.9 7.2 10.1 4.3 10.5C1.4 10.9 -1.2 10.7 -3 9.5C-4.7 8.2 -5.7 6 -6.7 4C-7.8 1.9 -9 0.1 -9 -1.8C-8.9 -3.7 -7.6 -5.6 -5.9 -7.2C-4.2 -8.7 -2.1 -10 0.1 -10.1C2.3 -10.2 4.6 -9.2 6 -7.6Z" fill="#cfcfcf"></path></g><g transform="translate(803 113)"><path d="M11.5 -14.3C14.1 -11.6 14.8 -7.2 15 -3.1C15.1 0.9 14.7 4.6 12.7 6.6C10.7 8.6 7.1 9 3.4 11.2C-0.3 13.3 -4 17.3 -6.2 16.7C-8.4 16 -9.1 10.8 -11.3 6.7C-13.6 2.5 -17.3 -0.6 -16.5 -2.5C-15.6 -4.3 -10.2 -4.9 -6.6 -7.5C-3.1 -10.1 -1.6 -14.6 1.5 -16.3C4.5 -18 8.9 -17 11.5 -14.3Z" fill="#cfcfcf"></path></g><g transform="translate(456 64)"><path d="M7.7 -9.4C9.5 -7.7 10.1 -4.8 11 -1.6C11.9 1.5 13.2 4.9 12.1 7C10.9 9.1 7.4 9.9 4.5 10C1.5 10.1 -0.9 9.5 -4.4 9.4C-8 9.3 -12.8 9.7 -13.4 8.1C-14 6.4 -10.5 2.6 -9.8 -1.8C-9.2 -6.3 -11.4 -11.3 -10.3 -13.1C-9.2 -14.9 -4.6 -13.3 -0.8 -12.4C3 -11.4 5.9 -11 7.7 -9.4Z" fill="#cfcfcf"></path></g><g transform="translate(554 200)"><path d="M6.8 -7.9C8.6 -6.5 10 -4.2 9.7 -2.2C9.4 -0.2 7.6 1.5 6.4 3.9C5.3 6.3 4.9 9.3 3 11.3C1.1 13.4 -2.3 14.4 -5.3 13.7C-8.3 13 -10.9 10.4 -12.7 7.3C-14.4 4.3 -15.3 0.7 -13.7 -1.4C-12.2 -3.6 -8.2 -4.3 -5.5 -5.6C-2.8 -6.9 -1.4 -8.7 0.5 -9.4C2.4 -10 4.9 -9.3 6.8 -7.9Z" fill="#cfcfcf"></path></g><g transform="translate(65 563)"><path d="M3.7 -4.8C4.7 -3.5 5.5 -2.3 7.5 0C9.6 2.4 13 5.9 12.5 7.8C12.1 9.6 7.9 9.8 4.1 11C0.4 12.2 -2.9 14.5 -4.5 13.4C-6.1 12.4 -6.1 8 -8.1 4.6C-10 1.3 -13.9 -0.9 -15 -4.1C-16.2 -7.3 -14.6 -11.4 -11.7 -12.4C-8.7 -13.3 -4.4 -11.1 -1.5 -9.3C1.3 -7.5 2.7 -6.1 3.7 -4.8Z" fill="#cfcfcf"></path></g><g transform="translate(132 244)"><path d="M7 -8.6C10.5 -5.4 15.9 -4.6 16.2 -2.8C16.6 -1 12 1.6 8.9 3.3C5.7 4.9 4 5.5 1.5 8C-0.9 10.5 -4 15 -7.2 15.6C-10.4 16.3 -13.6 13 -16.2 9.1C-18.9 5.1 -20.8 0.6 -20.3 -3.7C-19.7 -8 -16.6 -12 -12.8 -15.1C-8.9 -18.3 -4.5 -20.6 -1.4 -18.9C1.7 -17.3 3.5 -11.8 7 -8.6Z" fill="#cfcfcf"></path></g><g transform="translate(498 514)"><path d="M11.8 -14.1C15.2 -11.1 18 -7.4 17.9 -3.7C17.8 -0.1 15 3.4 12.3 6.1C9.5 8.7 7 10.4 4.5 10.5C2 10.6 -0.4 9.1 -2.9 8.1C-5.4 7.1 -8.1 6.7 -9.2 5.1C-10.3 3.6 -9.8 1 -9.3 -1.6C-8.8 -4.2 -8.3 -6.7 -6.7 -10C-5.2 -13.3 -2.6 -17.4 0.8 -18.3C4.1 -19.3 8.3 -17.1 11.8 -14.1Z" fill="#cfcfcf"></path></g><g transform="translate(453 595)"><path d="M4.7 -4.8C7.1 -3.6 10.8 -3.1 12.6 -1C14.4 1 14.2 4.6 12.6 7.3C11.1 10 8 11.8 5.3 11.5C2.6 11.1 0.2 8.5 -2.7 7.4C-5.7 6.4 -9.2 6.8 -10.7 5.5C-12.2 4.2 -11.7 1.1 -11 -1.8C-10.4 -4.7 -9.5 -7.5 -7.6 -8.8C-5.8 -10.1 -2.9 -10 -0.9 -9C1.2 -7.9 2.3 -6 4.7 -4.8Z" fill="#cfcfcf"></path></g><g transform="translate(117 393)"><path d="M13.7 -15.1C16.4 -14.1 16.3 -8.5 17.4 -2.9C18.6 2.6 21.1 8.1 19.7 12.3C18.4 16.6 13.3 19.5 8.4 20C3.5 20.4 -1.2 18.3 -5.1 16C-9 13.7 -12.1 11.3 -15.6 7.8C-19.1 4.3 -22.9 -0.2 -22.8 -4.6C-22.7 -9 -18.7 -13.2 -14.2 -13.9C-9.8 -14.6 -4.9 -11.6 0.3 -12C5.5 -12.3 11 -16 13.7 -15.1Z" fill="#cfcfcf"></path></g><g transform="translate(320 581)"><path d="M7.8 -8.2C10.2 -7.3 12.2 -4.9 14 -1.5C15.7 1.9 17.1 6.3 16 10.2C14.9 14.1 11.2 17.4 6.9 19.2C2.5 20.9 -2.6 21 -6.5 19C-10.4 17.1 -13.2 13.1 -15.7 9C-18.2 4.8 -20.6 0.4 -19.4 -2.8C-18.1 -6.1 -13.3 -8.1 -9.5 -8.7C-5.6 -9.3 -2.8 -8.6 0 -8.5C2.7 -8.5 5.5 -9.1 7.8 -8.2Z" fill="#cfcfcf"></path></g><g transform="translate(588 21)"><path d="M10.1 -12.1C11.4 -10.9 9.7 -6.2 9.6 -2.3C9.6 1.6 11.3 4.5 10.8 7C10.3 9.6 7.6 11.6 4.9 12C2.2 12.3 -0.6 10.8 -2.8 9.3C-4.9 7.8 -6.4 6.2 -8.4 4.2C-10.3 2.1 -12.8 -0.3 -13.6 -3.6C-14.5 -6.9 -13.7 -11.2 -11.1 -12.1C-8.6 -13 -4.3 -10.6 0 -10.6C4.4 -10.7 8.8 -13.2 10.1 -12.1Z" fill="#cfcfcf"></path></g><g transform="translate(237 409)"><path d="M6.9 -7.3C10.4 -5.3 15.8 -4.5 17.6 -1.9C19.5 0.7 18 5.1 15.1 7.4C12.2 9.7 7.9 9.8 4.2 10.9C0.4 12 -2.7 14.1 -6.5 14.3C-10.3 14.5 -14.7 12.8 -16.7 9.5C-18.6 6.3 -18.2 1.6 -15.9 -1.3C-13.6 -4.2 -9.4 -5.2 -6.5 -7.3C-3.5 -9.4 -1.8 -12.5 0 -12.5C1.7 -12.5 3.4 -9.3 6.9 -7.3Z" fill="#cfcfcf"></path></g><g transform="translate(96 90)"><path d="M9.2 -10.8C12.7 -8 17 -5.9 19.1 -2.1C21.3 1.6 21.3 6.9 19.2 11.6C17.1 16.2 12.9 20.1 8.9 19.3C4.9 18.6 1.1 13.1 -3.2 10.7C-7.4 8.3 -12.1 9 -16 7C-19.9 4.9 -23.1 0.2 -23.2 -4.9C-23.2 -10 -20.3 -15.3 -15.9 -18C-11.5 -20.6 -5.8 -20.7 -1.5 -18.9C2.8 -17.1 5.6 -13.6 9.2 -10.8Z" fill="#cfcfcf"></path></g><g transform="translate(613 83)"><path d="M9.3 -12.7C10.9 -9.8 10.2 -5.7 11.5 -1.6C12.7 2.6 15.9 6.8 15.6 10.4C15.2 14 11.2 17 6.9 18.3C2.5 19.6 -2.2 19.3 -5.3 17.1C-8.3 14.8 -9.7 10.6 -9.8 7.2C-10 3.8 -8.8 1.3 -8.6 -1.8C-8.4 -4.8 -9.2 -8.4 -7.9 -11.4C-6.6 -14.4 -3.3 -16.9 0.3 -17.2C3.9 -17.6 7.7 -15.7 9.3 -12.7Z" fill="#cfcfcf"></path></g><g transform="translate(835 433)"><path d="M6.4 -7.7C7.4 -6.8 6.8 -3.9 6.8 -1.5C6.8 0.8 7.5 2.8 7.4 5.5C7.3 8.2 6.4 11.6 4.4 12.7C2.3 13.7 -0.8 12.3 -3.2 10.6C-5.6 8.9 -7.2 7 -7.8 5C-8.4 2.9 -8 0.8 -7.7 -1.5C-7.4 -3.7 -7.2 -6 -6 -6.9C-4.7 -7.8 -2.3 -7.3 0.2 -7.5C2.7 -7.7 5.4 -8.7 6.4 -7.7Z" fill="#cfcfcf"></path></g><g transform="translate(662 325)"><path d="M7.2 -9C8.4 -7.5 8 -4.4 7.4 -2.1C6.8 0.2 6.1 1.7 5.4 3.4C4.8 5.2 4.1 7.3 2.6 8.4C1.1 9.5 -1.2 9.5 -3.2 8.8C-5.3 8.1 -7.1 6.6 -8.6 4.6C-10.1 2.7 -11.4 0.2 -11.3 -2.3C-11.2 -4.7 -9.7 -7.2 -7.6 -8.6C-5.4 -9.9 -2.7 -10.1 0.1 -10.2C3 -10.4 5.9 -10.5 7.2 -9Z" fill="#cfcfcf"></path></g><g transform="translate(848 367)"><path d="M8.4 -9.4C10.8 -7.9 12.9 -5.2 13.5 -2.3C14 0.6 13.2 3.9 11.8 7.3C10.4 10.6 8.4 14.1 5.6 14.9C2.8 15.7 -0.7 13.7 -4.6 12.4C-8.5 11.1 -12.8 10.5 -13.7 8.2C-14.7 6 -12.4 2.1 -10.6 -0.8C-8.8 -3.7 -7.6 -5.6 -5.9 -7.4C-4.2 -9.1 -2.1 -10.6 0.4 -11.1C2.9 -11.6 5.9 -11 8.4 -9.4Z" fill="#cfcfcf"></path></g><g transform="translate(369 278)"><path d="M5.7 -7.1C8 -4.8 11 -3.6 12.8 -1.2C14.5 1.3 15 5.1 13.8 8.6C12.6 12.1 9.7 15.4 6.2 16.2C2.8 17 -1.1 15.5 -4.7 13.8C-8.2 12.1 -11.4 10.2 -13.5 7.4C-15.6 4.5 -16.8 0.7 -16.6 -3.4C-16.4 -7.4 -14.9 -11.7 -11.9 -13.8C-8.9 -16 -4.5 -16 -1.4 -14.3C1.7 -12.7 3.3 -9.3 5.7 -7.1Z" fill="#cfcfcf"></path></g><g transform="translate(183 86)"><path d="M9.8 -9.9C13.9 -8.3 19.2 -6.3 18.7 -4C18.3 -1.7 12.1 0.8 9 4.3C5.9 7.7 5.9 12 4 13.9C2.2 15.8 -1.6 15.3 -3.8 13.2C-5.9 11.2 -6.5 7.6 -7.2 4.9C-7.9 2.1 -8.9 0.2 -8.9 -1.9C-9 -4 -8.1 -6.4 -6.5 -8.4C-4.8 -10.4 -2.4 -12.2 0.2 -12.4C2.9 -12.7 5.8 -11.5 9.8 -9.9Z" fill="#cfcfcf"></path></g><g transform="translate(127 558)"><path d="M4.2 -6.5C5.7 -3.8 7.4 -2.7 8.8 -0.7C10.2 1.3 11.3 4.2 10.3 6.1C9.4 7.9 6.4 8.8 4.1 8.4C1.7 8 0 6.5 -2.4 6C-4.8 5.4 -7.9 5.9 -10.2 4.6C-12.5 3.3 -14.1 0.2 -13.1 -1.7C-12.1 -3.7 -8.4 -4.7 -5.8 -7.2C-3.2 -9.7 -1.6 -13.7 -0.1 -13.6C1.4 -13.5 2.7 -9.2 4.2 -6.5Z" fill="#cfcfcf"></path></g><g transform="translate(588 553)"><path d="M9.8 -11.5C11.3 -10.5 10.1 -6 9.4 -2.7C8.7 0.6 8.6 2.8 8.6 6.9C8.5 11.1 8.5 17.2 6.2 18.7C4 20.2 -0.5 17 -4.3 14.5C-8.1 12 -11.1 10.1 -11.5 7.5C-12 5 -9.9 1.8 -9.1 -1.4C-8.3 -4.7 -8.9 -8 -7.6 -9.1C-6.4 -10.2 -3.2 -9 0.5 -9.6C4.2 -10.2 8.4 -12.6 9.8 -11.5Z" fill="#cfcfcf"></path></g><g transform="translate(8 541)"><path d="M8.6 -8.3C12 -7.4 16.1 -5.5 16.2 -3.1C16.3 -0.8 12.4 2.1 10.2 6.1C8.1 10.1 7.8 15.4 4.9 18.7C2 22 -3.5 23.4 -6.1 20.7C-8.8 18.1 -8.6 11.5 -8.3 7.1C-8 2.8 -7.6 0.8 -6.9 -0.9C-6.3 -2.6 -5.3 -3.9 -4.1 -5.2C-2.9 -6.5 -1.5 -7.6 0.6 -8.3C2.6 -9 5.2 -9.2 8.6 -8.3Z" fill="#cfcfcf"></path></g><g transform="translate(704 33)"><path d="M6.1 -7.5C7.9 -5.7 9.4 -3.8 9.5 -1.9C9.7 0.1 8.4 2.1 7.9 6C7.3 9.8 7.5 15.5 5.3 17.5C3.2 19.5 -1.4 17.8 -4.9 15.6C-8.5 13.4 -11.1 10.7 -13.5 7.4C-16 4.1 -18.2 0.2 -17 -2.4C-15.8 -5 -11.2 -6.4 -7.8 -7.9C-4.4 -9.4 -2.2 -11 0 -11C2.1 -10.9 4.2 -9.2 6.1 -7.5Z" fill="#cfcfcf"></path></g><g transform="translate(73 274)"><path d="M6.8 -8.6C8.3 -6.8 8.6 -4.2 8.1 -2.1C7.7 0 6.5 1.5 5.8 4.1C5.2 6.7 5.2 10.4 3.5 11.9C1.9 13.4 -1.2 12.7 -4.4 11.7C-7.5 10.7 -10.7 9.3 -12.1 7C-13.5 4.6 -13.1 1.2 -12.2 -1.9C-11.4 -4.9 -10 -7.6 -7.9 -9.3C-5.8 -11 -2.9 -11.7 -0.1 -11.5C2.7 -11.4 5.3 -10.4 6.8 -8.6Z" fill="#cfcfcf"></path></g><g transform="translate(319 109)"><path d="M5.1 -6.2C7.5 -4.1 10.9 -3.3 11.9 -1.6C12.8 0.2 11.3 2.9 9.6 5.1C7.8 7.3 5.8 8.9 3.3 10.3C0.8 11.8 -2.3 13.2 -5.5 13C-8.8 12.8 -12.4 11 -14.6 8C-16.8 5 -17.7 0.9 -16.8 -2.7C-15.9 -6.3 -13.2 -9.4 -10.1 -11.3C-7 -13.2 -3.5 -14.1 -1.1 -12.8C1.4 -11.5 2.7 -8.2 5.1 -6.2Z" fill="#cfcfcf"></path></g><g transform="translate(327 466)"><path d="M3.9 -3.8C5.8 -3.1 8.6 -2.5 10.3 -0.7C11.9 1.1 12.4 4.3 11.1 6.1C9.7 7.9 6.5 8.4 3.4 9.6C0.4 10.7 -2.4 12.6 -3.8 11.6C-5.1 10.6 -5 6.7 -6.7 3.8C-8.5 0.9 -12.2 -0.9 -11.9 -2C-11.6 -3.1 -7.4 -3.4 -4.7 -4C-2.1 -4.6 -1 -5.5 0 -5.5C1 -5.5 2 -4.5 3.9 -3.8Z" fill="#cfcfcf"></path></g><g transform="translate(616 409)"><path d="M6.2 -7C8.9 -5.1 12.6 -4 14 -1.7C15.4 0.7 14.4 4.2 12.2 6.2C10 8.2 6.7 8.6 3.6 9.6C0.5 10.5 -2.2 12.1 -5.3 12.1C-8.4 12.1 -11.9 10.5 -12.2 8C-12.6 5.5 -9.8 2.1 -8.2 -0.4C-6.5 -3 -6 -4.8 -4.8 -7C-3.6 -9.2 -1.8 -11.9 0 -11.8C1.7 -11.8 3.4 -9 6.2 -7Z" fill="#cfcfcf"></path></g><g transform="translate(469 280)"><path d="M4.5 -6.7C6.2 -4 8.2 -2.9 8.9 -1.2C9.6 0.4 9 2.6 7.6 3.9C6.3 5.2 4.2 5.6 2 7C-0.2 8.4 -2.5 10.8 -3.7 10.3C-5 9.9 -5.1 6.4 -7.8 3.6C-10.4 0.8 -15.7 -1.5 -17.3 -4.9C-18.9 -8.3 -16.8 -12.9 -13.3 -15.3C-9.8 -17.7 -4.9 -17.8 -1.7 -15.7C1.4 -13.6 2.8 -9.3 4.5 -6.7Z" fill="#cfcfcf"></path></g><g transform="translate(788 42)"><path d="M6.2 -10.1C7.6 -6.1 8.1 -3.8 9.9 -0.7C11.7 2.4 14.8 6.4 14.2 9C13.7 11.7 9.5 13.2 6 12.8C2.6 12.4 -0.2 10.2 -4.8 9.9C-9.5 9.6 -16 11.3 -18.5 9.5C-21.1 7.6 -19.6 2.2 -18.1 -2.7C-16.6 -7.6 -15.2 -12 -12.2 -15.7C-9.2 -19.4 -4.6 -22.3 -1.1 -21C2.4 -19.7 4.7 -14 6.2 -10.1Z" fill="#cfcfcf"></path></g><g transform="translate(807 241)"><path d="M7.9 -8.5C9.5 -8.1 9.6 -4.9 8.7 -2.6C7.9 -0.3 6.1 1.1 4.9 2.6C3.8 4.1 3.2 5.7 2.1 6.2C1.1 6.8 -0.5 6.3 -2.1 5.7C-3.7 5.2 -5.3 4.6 -7.2 3.2C-9 1.9 -11.1 -0.2 -11.4 -2.6C-11.6 -4.9 -10 -7.5 -7.8 -7.9C-5.6 -8.2 -2.8 -6.3 0.2 -6.5C3.2 -6.7 6.3 -9 7.9 -8.5Z" fill="#cfcfcf"></path></g><g transform="translate(680 178)"><path d="M11.2 -13C14.1 -11 15.7 -7 14.6 -3.9C13.5 -0.8 9.8 1.3 8.2 5.2C6.6 9.1 7 14.8 5.4 15.8C3.8 16.8 0.1 13.2 -4.2 11.6C-8.6 10 -13.6 10.4 -15.8 8.3C-17.9 6.3 -17 1.7 -14.7 -1.1C-12.4 -3.9 -8.7 -4.9 -6 -6.9C-3.3 -9 -1.7 -12 1.3 -13.5C4.2 -15 8.4 -15 11.2 -13Z" fill="#cfcfcf"></path></g><g transform="translate(651 255)"><path d="M6.1 -7.4C7.6 -6.1 8.3 -3.8 8.8 -1.4C9.4 1 10 3.5 9.1 5.4C8.2 7.2 5.8 8.4 3.4 9.4C0.9 10.3 -1.7 11.1 -3.7 10.3C-5.7 9.5 -7.1 7.2 -7.2 5.1C-7.2 3 -5.8 1.1 -5.8 -1.3C-5.7 -3.8 -7 -6.8 -6.3 -8.3C-5.5 -9.7 -2.8 -9.6 -0.2 -9.3C2.3 -9.1 4.7 -8.7 6.1 -7.4Z" fill="#cfcfcf"></path></g><g transform="translate(188 460)"><path d="M9 -12.4C10 -9.9 8 -5.5 8 -1.9C8.1 1.7 10.2 4.4 10.2 7.2C10.2 10 7.9 12.8 5.3 13.1C2.6 13.5 -0.4 11.4 -2.9 9.7C-5.5 8.1 -7.6 6.9 -9.5 4.9C-11.4 2.9 -13 0.2 -12 -1.5C-11 -3.2 -7.4 -3.9 -5 -6.2C-2.5 -8.5 -1.3 -12.5 1.4 -14.2C4 -15.8 8 -15 9 -12.4Z" fill="#cfcfcf"></path></g><g transform="translate(469 367)"><path d="M8.6 -10.2C11.7 -7.7 15.1 -5.5 14.5 -3.4C13.9 -1.3 9.3 0.7 6.8 3C4.4 5.2 4 7.7 2.6 8.9C1.3 10.1 -1.2 10 -4.4 9.8C-7.6 9.6 -11.6 9.3 -14 7.1C-16.4 4.9 -17.2 0.9 -15.6 -1.9C-14.1 -4.6 -10.2 -6 -7.1 -8.6C-4.1 -11.1 -2.1 -14.8 0.3 -15.2C2.8 -15.6 5.5 -12.8 8.6 -10.2Z" fill="#cfcfcf"></path></g><g transform="translate(24 227)"><path d="M10.1 -11.5C12.6 -10 13.7 -6.3 14.1 -2.7C14.4 0.9 14.1 4.4 12.4 7C10.7 9.5 7.6 11 4.5 11.9C1.4 12.9 -1.8 13.3 -4.4 12.3C-7 11.3 -9 8.8 -9.6 6.3C-10.1 3.8 -9.2 1.2 -8 -0.7C-6.8 -2.5 -5.3 -3.6 -4 -5.2C-2.6 -6.8 -1.3 -9.1 1.3 -10.6C3.8 -12.1 7.7 -12.9 10.1 -11.5Z" fill="#cfcfcf"></path></g><g transform="translate(669 459)"><path d="M10.6 -11.2C13.9 -9.9 16.8 -6.7 17.4 -3.1C18 0.5 16.3 4.5 14.1 8C11.9 11.6 9.2 14.7 5.8 16.1C2.3 17.4 -1.8 16.9 -4 14.5C-6.2 12.2 -6.4 8 -6.5 5.1C-6.6 2.2 -6.5 0.5 -6.6 -1.6C-6.7 -3.6 -7 -6.2 -5.9 -7.8C-4.8 -9.5 -2.4 -10.3 0.6 -11C3.7 -11.8 7.3 -12.4 10.6 -11.2Z" fill="#cfcfcf"></path></g><g transform="translate(414 435)"><path d="M5.3 -5.3C6.9 -4.9 8.3 -3.3 8.5 -1.6C8.7 0.1 7.7 2 6.4 3.1C5.1 4.3 3.5 4.7 1.9 5.3C0.4 5.8 -1.1 6.4 -2.1 5.9C-3 5.5 -3.5 3.9 -4.4 2.5C-5.2 1.1 -6.5 -0.2 -6.6 -1.4C-6.6 -2.6 -5.4 -3.8 -4.1 -4.3C-2.8 -4.8 -1.4 -4.5 0.2 -4.8C1.8 -5 3.7 -5.8 5.3 -5.3Z" fill="#cfcfcf"></path></g><g transform="translate(213 355)"><path d="M5.5 -7C7.7 -4.8 10.3 -3.5 10.2 -2.1C10.1 -0.7 7.3 0.9 6 3.6C4.6 6.4 4.9 10.1 3.7 10.8C2.6 11.5 0.1 9.1 -1.5 7.2C-3.1 5.3 -3.7 3.9 -5.7 2.4C-7.7 0.8 -11.1 -0.8 -12.1 -3.4C-13.1 -5.9 -11.9 -9.3 -9.5 -11.5C-7.1 -13.6 -3.5 -14.6 -0.9 -13.4C1.7 -12.3 3.4 -9.2 5.5 -7Z" fill="#cfcfcf"></path></g><g transform="translate(862 148)"><path d="M6.4 -7.1C8.3 -6 9.9 -4 10.7 -1.6C11.4 0.8 11.4 3.7 10.2 5.9C8.9 8.1 6.5 9.6 4 10.2C1.5 10.8 -1.1 10.4 -3.1 9.3C-5.1 8.3 -6.5 6.4 -7.1 4.5C-7.7 2.6 -7.5 0.7 -8 -2.2C-8.4 -5.1 -9.6 -8.9 -8.4 -10.2C-7.1 -11.5 -3.6 -10.2 -0.7 -9.4C2.2 -8.6 4.4 -8.3 6.4 -7.1Z" fill="#cfcfcf"></path></g><g transform="translate(403 4)"><path d="M12.6 -14.9C16 -12.2 18.1 -7.9 18.4 -3.6C18.8 0.7 17.5 5 15.5 9.4C13.5 13.7 10.8 18.1 6.8 20.3C2.7 22.5 -2.7 22.4 -7.6 20.7C-12.6 19 -17 15.7 -18.9 11.4C-20.9 7.1 -20.4 1.8 -18.1 -1.8C-15.8 -5.4 -11.7 -7.3 -8.4 -9.9C-5.1 -12.6 -2.6 -16.1 1 -17.3C4.6 -18.6 9.3 -17.6 12.6 -14.9Z" fill="#cfcfcf"></path></g><g transform="translate(237 168)"><path d="M8.9 -11.6C10.4 -9.2 9.9 -5.4 11.5 -1.3C13.1 2.9 16.9 7.4 16.2 10.2C15.6 13 10.6 14.1 6.8 13.2C2.9 12.2 0.4 9.2 -1.7 7.3C-3.8 5.5 -5.4 4.8 -6.7 3.4C-7.9 2.1 -8.8 0.2 -9.4 -2.5C-9.9 -5.3 -10.2 -8.9 -8.6 -11.2C-7 -13.5 -3.5 -14.6 0.1 -14.7C3.6 -14.8 7.3 -13.9 8.9 -11.6Z" fill="#cfcfcf"></path></g><g transform="translate(6 387)"><path d="M12.7 -14.2C16.7 -11.8 20.4 -8 19.7 -4.6C18.9 -1.2 13.8 1.9 10.7 5C7.5 8.2 6.4 11.3 3.9 13.3C1.5 15.2 -2.3 16 -6.4 15.4C-10.5 14.9 -15 13 -17.8 9.6C-20.6 6.1 -21.8 1 -20.3 -2.9C-18.8 -6.9 -14.6 -9.7 -10.8 -12.1C-7 -14.6 -3.5 -16.6 0.4 -17.1C4.4 -17.7 8.7 -16.6 12.7 -14.2Z" fill="#cfcfcf"></path></g><g transform="translate(249 43)"><path d="M5.3 -7.6C7.6 -4.5 10.6 -3.4 13.3 -0.5C16 2.4 18.3 7.1 16.8 9.7C15.3 12.3 10 12.6 5.3 14.2C0.5 15.8 -3.7 18.7 -5.9 17.4C-8.1 16 -8.4 10.5 -10.4 6.3C-12.4 2.2 -16.2 -0.7 -16.2 -3.3C-16.2 -5.9 -12.6 -8.2 -9.2 -11.2C-5.9 -14.2 -3 -17.9 -0.7 -17C1.5 -16.2 3.1 -10.8 5.3 -7.6Z" fill="#cfcfcf"></path></g><g transform="translate(890 242)"><path d="M10.8 -13.9C13 -11.1 12.8 -6.7 11.9 -3.3C11 0 9.4 2.2 8.3 5.4C7.2 8.6 6.7 12.8 4 15.9C1.3 19 -3.6 21.1 -5.7 18.9C-7.8 16.7 -7.2 10.3 -8.6 5.9C-9.9 1.6 -13.2 -0.7 -13.3 -2.7C-13.3 -4.7 -10.1 -6.4 -7.3 -9.1C-4.6 -11.8 -2.3 -15.4 1 -16.6C4.4 -17.8 8.7 -16.7 10.8 -13.9Z" fill="#cfcfcf"></path></g><g transform="translate(755 545)"><path d="M9 -9.1C12.2 -8 15.8 -5.7 15.9 -3.1C16.1 -0.4 12.8 2.5 9.9 4C7 5.6 4.6 5.6 2 7.4C-0.5 9.1 -3.1 12.4 -4.5 12C-5.8 11.7 -5.9 7.6 -7 4.6C-8 1.6 -10.1 -0.3 -10.4 -2.4C-10.7 -4.5 -9.2 -6.8 -7.2 -8.1C-5.1 -9.5 -2.6 -9.8 0.2 -10C2.9 -10.2 5.8 -10.2 9 -9.1Z" fill="#cfcfcf"></path></g><g transform="translate(827 524)"><path d="M6.7 -7.6C7.8 -7.1 7.1 -4.1 7.1 -1.6C7.1 0.8 7.7 2.8 7 4.1C6.3 5.3 4.3 5.8 2.4 6.6C0.4 7.4 -1.5 8.5 -3.6 8.4C-5.6 8.3 -7.7 7 -8 5.2C-8.2 3.5 -6.6 1.3 -5.6 -0.4C-4.6 -2 -4.1 -3.2 -3.2 -3.7C-2.4 -4.3 -1.2 -4.4 0.8 -5.3C2.8 -6.3 5.6 -8.2 6.7 -7.6Z" fill="#cfcfcf"></path></g><g transform="translate(273 343)"><path d="M7.2 -8.9C8.7 -7.2 9.1 -4.4 9.6 -1.7C10.1 1.1 10.7 3.8 9.8 5.9C8.9 8.1 6.5 9.6 4.3 9.3C2.1 8.9 0.2 6.8 -2 5.8C-4.2 4.9 -6.6 5 -7.5 4.1C-8.4 3.1 -7.6 0.9 -6.9 -0.9C-6.2 -2.7 -5.5 -4.2 -4.3 -5.9C-3.2 -7.7 -1.6 -9.7 0.6 -10.4C2.8 -11.2 5.6 -10.6 7.2 -8.9Z" fill="#cfcfcf"></path></g><g transform="translate(719 353)"><path d="M14.7 -17C18.2 -14.6 19.6 -9.2 18.6 -4.8C17.5 -0.4 14.1 2.9 11.9 7.1C9.7 11.3 8.8 16.5 6.3 17.6C3.7 18.6 -0.4 15.6 -3.3 12.9C-6.1 10.2 -7.7 7.8 -9.8 5.2C-11.8 2.6 -14.4 -0.2 -15.7 -4.5C-16.9 -8.7 -16.9 -14.4 -14.1 -16.9C-11.2 -19.4 -5.6 -18.7 0 -18.7C5.6 -18.7 11.2 -19.4 14.7 -17Z" fill="#cfcfcf"></path></g><g transform="translate(362 380)"><path d="M5.8 -5.8C7.7 -5.4 9.5 -3.7 10.6 -1.3C11.7 1.1 12.2 4.2 10.6 5.4C9.1 6.5 5.4 5.8 2.5 6.8C-0.4 7.7 -2.6 10.5 -4.1 10.3C-5.7 10.2 -6.5 7.2 -8.1 4.6C-9.6 2 -11.8 -0.2 -12.1 -2.7C-12.4 -5.2 -10.7 -7.9 -8.3 -8.2C-6 -8.5 -3 -6.4 -0.5 -5.8C2 -5.2 4 -6.1 5.8 -5.8Z" fill="#cfcfcf"></path></g><g transform="translate(878 22)"><path d="M5.8 -8.9C6.8 -6.1 6.3 -3.6 7.6 -0.7C8.8 2.1 11.7 5.3 11.8 8.4C11.9 11.5 9.1 14.5 5.8 15.6C2.4 16.7 -1.5 15.9 -4.2 13.9C-7 12 -8.4 8.8 -9.9 5.9C-11.3 3 -12.8 0.2 -12.1 -1.9C-11.5 -4 -8.7 -5.6 -6.3 -8.2C-4 -10.8 -2 -14.4 0.2 -14.7C2.4 -14.9 4.8 -11.8 5.8 -8.9Z" fill="#cfcfcf"></path></g><g transform="translate(739 179)"><path d="M4.8 -5.1C7 -3.8 10.4 -3.1 12.4 -0.8C14.4 1.4 15 5.3 13.7 8.2C12.3 11.2 9 13.2 5.8 13.2C2.6 13.2 -0.4 11.2 -2.1 9.1C-3.8 7 -4.3 4.9 -6.7 2.8C-9.1 0.8 -13.5 -1.2 -13.7 -2.9C-14 -4.7 -10.3 -6.2 -7.3 -7.5C-4.3 -8.7 -2.2 -9.7 -0.5 -9.2C1.2 -8.6 2.5 -6.5 4.8 -5.1Z" fill="#cfcfcf"></path></g><g transform="translate(338 48)"><path d="M4.6 -6.1C6.2 -4.1 7.9 -2.9 8.9 -1C9.9 0.9 10.1 3.4 8.9 4.8C7.7 6.3 5.1 6.6 3.1 6.5C1 6.3 -0.5 5.8 -3.3 6.1C-6.1 6.3 -10.2 7.3 -12 6C-13.8 4.8 -13.3 1.3 -11.7 -1.1C-10.1 -3.4 -7.5 -4.6 -5.4 -6.5C-3.2 -8.4 -1.6 -11 -0.1 -10.9C1.5 -10.8 3 -8.1 4.6 -6.1Z" fill="#cfcfcf"></path></g><g transform="translate(843 288)"><path d="M6.4 -7.9C7.7 -6.6 7.7 -4 8 -1.5C8.3 0.9 8.9 3.2 8.4 5.5C7.9 7.8 6.2 10.2 4.4 9.9C2.6 9.6 0.6 6.6 -1 5C-2.7 3.5 -4.1 3.3 -4.8 2.5C-5.6 1.8 -5.7 0.4 -6.1 -1.6C-6.4 -3.6 -6.9 -6.3 -5.9 -7.6C-5 -9 -2.5 -9.2 0 -9.2C2.6 -9.3 5.2 -9.3 6.4 -7.9Z" fill="#cfcfcf"></path></g><g transform="translate(528 597)"><path d="M7.4 -9.1C8.3 -7.9 7.1 -4.5 7.4 -1.5C7.7 1.5 9.4 4 9.1 5.9C8.8 7.9 6.3 9.3 4 9.5C1.7 9.6 -0.5 8.5 -2.9 7.8C-5.4 7 -8 6.6 -8.6 5.2C-9.2 3.8 -7.7 1.3 -7.6 -1.6C-7.4 -4.6 -8.6 -8.2 -7.6 -9.3C-6.5 -10.5 -3.3 -9.3 0 -9.2C3.2 -9.2 6.4 -10.3 7.4 -9.1Z" fill="#cfcfcf"></path></g><g transform="translate(176 12)"><path d="M5.3 -5.5C7.3 -4.6 9.7 -3.4 10.8 -1.2C12 0.9 11.9 3.9 10.3 5.2C8.7 6.6 5.4 6.3 3.2 6C0.9 5.8 -0.5 5.4 -2.1 5.1C-3.7 4.8 -5.5 4.5 -6.3 3.5C-7 2.4 -6.7 0.7 -6.7 -1.5C-6.7 -3.7 -7.1 -6.3 -6 -7.3C-5 -8.3 -2.5 -7.8 -0.4 -7.3C1.6 -6.8 3.3 -6.3 5.3 -5.5Z" fill="#cfcfcf"></path></g><g transform="translate(887 558)"><path d="M6.6 -6.9C8.8 -6.1 10.8 -4.2 11.2 -1.9C11.7 0.3 10.7 2.9 9.2 5.3C7.8 7.6 6.1 9.7 4.2 9.5C2.3 9.4 0.3 7 -2.2 6.1C-4.8 5.2 -7.9 5.8 -9.4 4.7C-10.9 3.6 -10.8 0.8 -10 -1.4C-9.2 -3.7 -7.7 -5.5 -5.9 -6.4C-4.1 -7.2 -2.1 -7 0.1 -7.1C2.3 -7.3 4.5 -7.7 6.6 -6.9Z" fill="#cfcfcf"></path></g><g transform="translate(248 482)"><path d="M5.7 -5.7C7.5 -5.3 9.2 -3.6 9.6 -1.6C10 0.3 9.2 2.6 8.3 5.3C7.4 8.1 6.4 11.4 4.2 12.8C2 14.2 -1.4 13.7 -3.7 12C-6 10.4 -7.2 7.6 -7.8 5.2C-8.4 2.7 -8.5 0.6 -8.9 -2.3C-9.2 -5.1 -9.7 -8.7 -8.3 -9.2C-6.9 -9.7 -3.4 -7.1 -0.7 -6.3C2 -5.4 3.9 -6.2 5.7 -5.7Z" fill="#cfcfcf"></path></g><g transform="translate(122 164)"><path d="M11.5 -13.1C14 -11.7 14.5 -7.1 13.4 -3.8C12.2 -0.5 9.4 1.7 7.3 3.2C5.2 4.6 3.7 5.4 1.7 7.4C-0.4 9.5 -3.1 12.7 -6.4 13.3C-9.6 13.9 -13.4 11.9 -15.8 8.7C-18.2 5.4 -19.2 0.9 -17.8 -2.5C-16.4 -5.9 -12.7 -8.3 -9.3 -9.6C-6 -10.9 -3 -11.1 0.8 -12C4.5 -12.9 9 -14.6 11.5 -13.1Z" fill="#cfcfcf"></path></g><g transform="translate(477 165)"><path d="M9.1 -10.7C10.7 -9.6 10.2 -5.6 9.5 -2.7C8.9 0.3 8.1 2.3 7.4 4.9C6.6 7.6 5.9 10.9 4.3 11.1C2.7 11.4 0.3 8.6 -2.5 7.4C-5.4 6.2 -8.7 6.5 -10.1 5.2C-11.6 3.9 -11.4 1 -10.7 -1.8C-10.1 -4.6 -9.2 -7.2 -7.3 -8.3C-5.5 -9.4 -2.7 -8.9 0.5 -9.5C3.8 -10.1 7.5 -11.8 9.1 -10.7Z" fill="#cfcfcf"></path></g><g transform="translate(746 462)"><path d="M7.3 -8.6C10.7 -5.9 15.3 -4.7 17 -2C18.8 0.8 17.5 5.1 15.4 8.9C13.2 12.7 10.1 15.9 6.8 15.9C3.5 15.9 0 12.7 -2.1 10.1C-4.3 7.5 -5.1 5.4 -6.6 3.5C-8.1 1.5 -10.3 -0.3 -11.3 -3.3C-12.3 -6.2 -12.1 -10.2 -10 -13C-7.9 -15.9 -4 -17.5 -1 -16.4C2 -15.2 4 -11.2 7.3 -8.6Z" fill="#cfcfcf"></path></g><g transform="translate(28 461)"><path d="M6.1 -8.2C7.3 -6.3 7.3 -3.8 7.3 -1.6C7.2 0.5 7.1 2.3 6.2 3.3C5.3 4.4 3.6 4.7 1.6 6.2C-0.4 7.7 -2.5 10.3 -3.5 9.9C-4.6 9.5 -4.4 5.9 -5.1 3.5C-5.9 1.1 -7.5 -0.3 -8.1 -2.2C-8.7 -4.1 -8.1 -6.6 -6.6 -8.4C-5.1 -10.3 -2.5 -11.5 0 -11.4C2.5 -11.4 4.9 -10.1 6.1 -8.2Z" fill="#cfcfcf"></path></g><g transform="translate(201 254)"><path d="M4.4 -6.4C5.4 -4.3 5.9 -2.7 6 -1.2C6.1 0.4 5.9 1.8 5.5 3.9C5.2 5.9 4.6 8.6 3 9.8C1.4 11 -1.2 10.9 -3.1 9.7C-4.9 8.5 -6 6.3 -7.2 4.1C-8.4 2 -9.7 0 -9.6 -1.9C-9.5 -3.8 -8 -5.7 -6.1 -7.6C-4.3 -9.5 -2.1 -11.4 -0.2 -11.1C1.7 -10.9 3.3 -8.4 4.4 -6.4Z" fill="#cfcfcf"></path></g><g transform="translate(106 502)"><path d="M7.4 -8.6C9.6 -7 11.3 -4.6 11.4 -2.3C11.4 0 9.7 2.3 8.4 5.3C7.2 8.3 6.5 12.1 4.1 14.3C1.7 16.4 -2.3 16.9 -4.5 15C-6.7 13 -7 8.6 -10.4 4.9C-13.9 1.2 -20.5 -1.8 -20.1 -3.5C-19.8 -5.2 -12.5 -5.7 -8 -6.9C-3.5 -8.2 -1.7 -10.2 0.4 -10.7C2.6 -11.2 5.2 -10.2 7.4 -8.6Z" fill="#cfcfcf"></path></g><g transform="translate(657 532)"><path d="M7.2 -10.2C8.1 -7.9 6.6 -4.4 7.3 -1.2C8 2.1 11 5.1 11 7.4C10.9 9.8 7.9 11.5 5.2 11.1C2.6 10.6 0.3 8 -2.3 6.9C-4.9 5.7 -7.9 6 -10.5 4.6C-13.1 3.2 -15.2 0.1 -14.6 -2.5C-14 -5 -10.7 -6.9 -7.8 -8.7C-4.9 -10.6 -2.5 -12.4 0.4 -12.9C3.2 -13.3 6.4 -12.4 7.2 -10.2Z" fill="#cfcfcf"></path></g><g transform="translate(199 518)"><path d="M5.7 -6.9C7.3 -5.6 8.2 -3.6 7.7 -2C7.1 -0.5 5.1 0.7 3.8 1.5C2.5 2.4 1.9 2.9 0.9 3.8C0 4.6 -1.3 5.8 -2.7 5.9C-4.1 6 -5.6 5 -7.1 3.5C-8.7 2 -10.2 0 -9.7 -1.5C-9.2 -3 -6.7 -4 -4.7 -5.3C-2.8 -6.6 -1.4 -8.2 0.4 -8.6C2.1 -9.1 4.2 -8.3 5.7 -6.9Z" fill="#cfcfcf"></path></g><g transform="translate(544 113)"><path d="M7.8 -8.8C9.3 -8 9.3 -4.8 10.1 -1.6C10.8 1.6 12.3 4.8 11.2 6.2C10 7.5 6.2 7.1 3.1 7.9C0.1 8.7 -2.3 10.7 -4.9 10.9C-7.6 11.1 -10.5 9.4 -12.1 6.9C-13.7 4.3 -14 0.9 -13.6 -2.6C-13.2 -6.1 -12.2 -9.7 -9.8 -10.4C-7.5 -11 -3.7 -8.7 -0.3 -8.3C3.1 -8 6.2 -9.5 7.8 -8.8Z" fill="#cfcfcf"></path></g><g transform="translate(418 235)"><path d="M9.1 -11.7C11.2 -9 12 -5.6 13 -2C14 1.6 15.2 5.5 13.5 7.3C11.9 9 7.4 8.6 4.2 8.4C1 8.1 -0.9 8 -4.7 8.5C-8.4 9 -14 10.2 -17.2 8.2C-20.3 6.3 -21 1.2 -18.5 -1.5C-15.9 -4.3 -10.1 -4.7 -6.5 -7.1C-2.9 -9.5 -1.4 -13.8 1 -15C3.5 -16.2 6.9 -14.3 9.1 -11.7Z" fill="#cfcfcf"></path></g><g transform="translate(520 38)"><path d="M10 -12.1C13.1 -9.4 15.6 -6.3 14.7 -3.7C13.9 -1.1 9.6 1 7.9 5C6.1 9 6.9 15 5 17C3.2 19.1 -1.2 17.3 -5.9 15.8C-10.5 14.2 -15.3 12.9 -18 9.7C-20.7 6.5 -21.1 1.3 -18.6 -1.5C-16 -4.4 -10.4 -5.1 -6.8 -7.6C-3.2 -10.2 -1.6 -14.8 1 -15.9C3.5 -17.1 7 -14.8 10 -12.1Z" fill="#cfcfcf"></path></g><g transform="translate(98 22)"><path d="M15.8 -18.4C20.3 -15.1 23.5 -9.9 22.4 -5.5C21.4 -1.1 15.9 2.4 12.4 6C9 9.6 7.5 13.2 4.4 16C1.3 18.9 -3.6 21 -7.8 20.1C-12 19.1 -15.5 15.1 -17.5 10.6C-19.5 6.1 -20 1.3 -17.8 -1.7C-15.6 -4.7 -10.8 -5.9 -7.3 -9.4C-3.9 -12.9 -2 -18.8 1.8 -21C5.7 -23.2 11.3 -21.7 15.8 -18.4Z" fill="#cfcfcf"></path></g><g transform="translate(231 591)"><path d="M10.1 -12.9C12.7 -9.9 14.2 -6.3 13.4 -3.4C12.6 -0.6 9.7 1.6 8.3 5.6C7 9.6 7.4 15.4 5.6 16.7C3.7 17.9 -0.2 14.7 -3.4 12.3C-6.7 9.9 -9.2 8.3 -11.2 5.9C-13.3 3.5 -14.9 0.3 -14.1 -2.2C-13.3 -4.6 -10 -6.4 -7.3 -9.4C-4.5 -12.4 -2.3 -16.6 0.7 -17.5C3.8 -18.4 7.5 -15.9 10.1 -12.9Z" fill="#cfcfcf"></path></g><g transform="translate(158 304)"><path d="M8.8 -8.9C11.6 -8 14.5 -5.5 15.4 -2.4C16.3 0.7 15.2 4.5 13.3 7.6C11.4 10.8 8.6 13.4 5.9 12.9C3.2 12.5 0.6 9 -2 7.2C-4.6 5.5 -7.2 5.6 -9.6 4.2C-12 2.8 -14.3 -0.1 -14 -2.6C-13.8 -5.1 -10.9 -7.4 -8.1 -8.3C-5.4 -9.2 -2.7 -8.7 0.1 -8.9C2.9 -9 5.9 -9.8 8.8 -8.9Z" fill="#cfcfcf"></path></g><g transform="translate(706 234)"><path d="M6.5 -6.6C8.8 -5.7 11.4 -4.1 13 -1.4C14.6 1.4 15.2 5.2 13.5 7.4C11.8 9.6 7.8 10.1 4.7 10C1.5 9.9 -0.8 9.2 -4 8.9C-7.2 8.6 -11.3 8.7 -11.8 7.2C-12.3 5.6 -9.2 2.2 -8.5 -1.4C-7.8 -5.1 -9.4 -9.1 -8.4 -10.3C-7.4 -11.4 -3.7 -9.7 -0.8 -8.7C2.1 -7.7 4.1 -7.5 6.5 -6.6Z" fill="#cfcfcf"></path></g><g transform="translate(556 393)"><path d="M8.3 -10.9C9.7 -8.7 9 -5.1 9.9 -1.5C10.8 2 13.2 5.5 12.7 8.2C12.1 10.8 8.7 12.6 5.8 12C2.9 11.4 0.5 8.4 -2.8 7.4C-6.1 6.3 -10.2 7.3 -11.7 6.1C-13.2 4.9 -12.1 1.5 -11 -1.4C-9.9 -4.3 -8.7 -6.6 -6.8 -8.8C-5 -10.9 -2.5 -12.9 0.5 -13.5C3.4 -14.1 6.9 -13.2 8.3 -10.9Z" fill="#cfcfcf"></path></g><g transform="translate(706 593)"><path d="M13 -17.1C14.7 -14.1 12.4 -8 12.8 -2.7C13.1 2.5 16.1 6.8 15.7 10.7C15.4 14.6 11.7 18.2 7.9 18.1C4.1 18 0.2 14 -2.2 11C-4.6 8 -5.5 5.8 -8.7 3.5C-12 1.1 -17.6 -1.5 -17.9 -3.7C-18.2 -5.9 -13.1 -7.8 -9.3 -10.4C-5.4 -12.9 -2.7 -16.2 1.5 -18C5.7 -19.8 11.4 -20 13 -17.1Z" fill="#cfcfcf"></path></g><g transform="translate(864 80)"><path d="M6.8 -8C10 -5.4 14.5 -4.4 16.4 -1.7C18.3 1 17.5 5.3 15.3 8.5C13.1 11.7 9.4 13.6 6 13.5C2.7 13.5 -0.4 11.3 -2.8 9.6C-5.2 7.9 -7 6.5 -7.6 4.7C-8.3 3 -7.7 0.9 -7.7 -1.8C-7.7 -4.4 -8.4 -7.6 -7.2 -10.5C-6 -13.4 -3 -16.1 -0.6 -15.4C1.8 -14.7 3.6 -10.6 6.8 -8Z" fill="#cfcfcf"></path></g><g transform="translate(368 158)"><path d="M7.2 -9.1C8.2 -7.7 7.1 -4.4 7.9 -1.2C8.6 1.9 11.2 4.9 10.8 6.9C10.5 8.9 7.2 9.8 4.5 9.7C1.7 9.6 -0.4 8.4 -3.1 7.7C-5.7 7.1 -8.9 7 -9.4 5.6C-10 4.3 -8 1.6 -7.1 -0.8C-6.1 -3.2 -6.2 -5.3 -5.2 -6.7C-4.2 -8.1 -2.1 -8.8 0.5 -9.4C3.1 -10 6.2 -10.5 7.2 -9.1Z" fill="#cfcfcf"></path></g><g transform="translate(497 222)"><path d="M8.9 -11.2C12.2 -7.9 16 -5.7 15.7 -3.4C15.4 -1.1 10.9 1.3 8.5 4.2C6 7.2 5.6 10.6 3.3 13.1C1.1 15.7 -2.9 17.4 -7.5 17.1C-12 16.9 -17.1 14.9 -19.1 11.1C-21.1 7.4 -20 2 -17.9 -2C-15.8 -6 -12.7 -8.7 -9.5 -12C-6.3 -15.4 -3.2 -19.5 -0.2 -19.3C2.8 -19.1 5.6 -14.6 8.9 -11.2Z" fill="#cfcfcf"></path></g><g transform="translate(644 4)"><path d="M10.3 -11.3C12.3 -10.6 12.1 -6.4 11.4 -3.1C10.7 0.2 9.5 2.5 8.6 5.9C7.8 9.4 7.3 13.9 5.3 14.8C3.3 15.7 -0.2 12.8 -2.7 10.5C-5.2 8.2 -6.8 6.5 -7.3 4.7C-7.8 2.8 -7.2 0.8 -6.5 -0.7C-5.7 -2.3 -4.8 -3.4 -3.7 -4.3C-2.5 -5.1 -1.3 -5.7 1.4 -7.4C4.2 -9.1 8.3 -12 10.3 -11.3Z" fill="#cfcfcf"></path></g><g transform="translate(614 201)"><path d="M4 -5.2C5.7 -3.3 8 -2.6 8.6 -1.2C9.3 0.2 8.4 2.2 7.4 4.7C6.5 7.1 5.6 10 3.9 10.5C2.2 11 -0.2 9.2 -2.4 7.9C-4.6 6.6 -6.5 5.7 -7.6 4.2C-8.7 2.7 -9 0.5 -8.8 -1.8C-8.7 -4.1 -8.1 -6.5 -6.5 -8.4C-5 -10.2 -2.5 -11.5 -0.7 -10.7C1.1 -9.9 2.3 -7 4 -5.2Z" fill="#cfcfcf"></path></g><g transform="translate(806 177)"><path d="M8.9 -9.5C11.5 -8.4 13.6 -5.6 13.7 -2.8C13.8 0.1 11.9 2.9 10.2 6C8.6 9.1 7.1 12.4 5.1 12.3C3.1 12.3 0.6 8.9 -2.2 7.4C-5.1 5.8 -8.1 6.1 -10 4.8C-11.8 3.5 -12.5 0.6 -11.4 -1.4C-10.3 -3.4 -7.5 -4.4 -5.3 -5.6C-3.1 -6.8 -1.5 -8.2 0.8 -9.2C3.1 -10.1 6.3 -10.6 8.9 -9.5Z" fill="#cfcfcf"></path></g><g transform="translate(558 479)"><path d="M4.6 -5.4C5.9 -4.4 6.9 -2.9 7.9 -0.9C8.9 1.2 9.9 3.7 9.3 6C8.7 8.2 6.5 10.1 4.1 10.8C1.7 11.5 -1.1 11 -3.6 10C-6.1 9 -8.4 7.6 -10 5.5C-11.5 3.3 -12.4 0.5 -12.3 -2.6C-12.3 -5.7 -11.4 -9.2 -9.2 -10C-7 -10.9 -3.5 -9.2 -0.9 -8.1C1.6 -7 3.3 -6.4 4.6 -5.4Z" fill="#cfcfcf"></path></g><g transform="translate(388 503)"><path d="M12.2 -13.3C16.2 -11.1 20.1 -7.7 20.7 -3.7C21.3 0.2 18.6 4.7 16.1 9.4C13.5 14.2 11.2 19.2 7 21.9C2.8 24.6 -3.2 24.9 -7.5 22.5C-11.7 20.1 -14.3 14.9 -13.9 10.5C-13.6 6.1 -10.4 2.4 -9.1 -1.1C-7.9 -4.6 -8.6 -7.9 -7.4 -10.5C-6.2 -13.2 -3.1 -15.3 0.5 -15.9C4.1 -16.5 8.2 -15.5 12.2 -13.3Z" fill="#cfcfcf"></path></g><g transform="translate(270 244)"><path d="M6.5 -7.9C8.2 -6.3 9.3 -4.1 9.2 -2C9.1 0.1 7.9 2 6.9 4.1C5.8 6.2 4.9 8.5 3 10C1.1 11.5 -1.8 12.3 -4.2 11.4C-6.6 10.6 -8.5 8.3 -8.9 6C-9.4 3.6 -8.3 1.1 -7.5 -0.9C-6.6 -2.9 -5.8 -4.5 -4.6 -6.2C-3.4 -7.8 -1.7 -9.5 0.3 -9.9C2.4 -10.3 4.8 -9.5 6.5 -7.9Z" fill="#cfcfcf"></path></g><g transform="translate(432 122)"><path d="M6.8 -8.9C8.5 -6.7 9.3 -4.3 10.2 -1.5C11 1.3 12 4.4 10.6 5.5C9.2 6.7 5.6 5.9 2.7 6.7C-0.2 7.4 -2.2 9.6 -4.4 9.8C-6.6 10 -8.9 8.3 -9.5 6.1C-10.1 3.9 -9 1.2 -8 -0.8C-6.9 -2.8 -5.8 -4.2 -4.5 -6.5C-3.1 -8.7 -1.6 -11.9 0.5 -12.5C2.6 -13.1 5.2 -11.1 6.8 -8.9Z" fill="#cfcfcf"></path></g><g transform="translate(676 112)"><path d="M6.7 -7.4C9.1 -6 11.7 -4.3 12.3 -2C12.8 0.2 11.3 2.9 9.5 5C7.7 7.1 5.7 8.6 3.4 9.6C1.1 10.5 -1.5 11 -3.5 10C-5.4 9.1 -6.6 6.8 -8.2 4.5C-9.7 2.2 -11.6 -0.1 -11.8 -2.6C-12 -5.2 -10.6 -8.1 -8.3 -9.4C-6.1 -10.8 -3.1 -10.7 -0.4 -10.2C2.2 -9.7 4.3 -8.7 6.7 -7.4Z" fill="#cfcfcf"></path></g><g transform="translate(891 468)"><path d="M13.4 -13.9C17.1 -12.8 19.6 -8.4 18.1 -5C16.7 -1.5 11.1 0.8 8.8 5.2C6.4 9.5 7.2 15.8 5 18.8C2.8 21.8 -2.5 21.6 -6.1 19.2C-9.6 16.8 -11.5 12.3 -13.9 8C-16.3 3.8 -19.3 -0.1 -18.7 -3.3C-18.1 -6.5 -13.9 -9.1 -10.2 -10.2C-6.5 -11.3 -3.3 -11 0.8 -11.9C4.8 -12.8 9.7 -15 13.4 -13.9Z" fill="#cfcfcf"></path></g><g transform="translate(530 319)"><path d="M13.5 -16.2C16.7 -13.4 18 -8.4 17.9 -3.9C17.9 0.7 16.6 4.7 13.9 6.7C11.2 8.6 7.1 8.4 4 8.4C0.9 8.4 -1.1 8.5 -2.8 7.8C-4.6 7.2 -6 5.8 -6.8 4.1C-7.6 2.4 -7.6 0.5 -8.1 -2.2C-8.5 -4.9 -9.3 -8.5 -8 -11.6C-6.7 -14.7 -3.4 -17.3 0.9 -18.4C5.2 -19.5 10.3 -19 13.5 -16.2Z" fill="#cfcfcf"></path></g><g transform="translate(790 597)"><path d="M3.2 -5.2C4.5 -2.8 5.9 -2.1 6.5 -0.9C7 0.3 6.5 1.9 6.1 4.2C5.6 6.5 5.1 9.6 3.8 9.8C2.5 10 0.3 7.5 -1 5.7C-2.4 4 -3.1 3.1 -5.3 1.8C-7.6 0.5 -11.5 -1.1 -12 -2.8C-12.5 -4.6 -9.7 -6.4 -7.2 -8.5C-4.6 -10.7 -2.3 -13.1 -0.7 -12.3C1 -11.6 2 -7.6 3.2 -5.2Z" fill="#cfcfcf"></path></g><g transform="translate(19 93)"><path d="M5.9 -5.5C8.2 -5 11.1 -3.7 12 -1.7C12.9 0.4 11.7 3.2 10.2 5.9C8.7 8.5 6.8 11 4.4 11.6C2.1 12.2 -0.7 10.9 -3.9 10C-7 9.2 -10.6 8.6 -11.3 6.8C-12.1 4.9 -10.1 1.8 -8.5 -0.5C-6.9 -2.8 -5.8 -4.1 -4.4 -4.8C-3.1 -5.4 -1.5 -5.4 0.1 -5.5C1.8 -5.7 3.5 -6 5.9 -5.5Z" fill="#cfcfcf"></path></g><g transform="translate(785 396)"><path d="M8.7 -11.8C9.8 -9.5 8.2 -5.3 8.3 -1.9C8.4 1.5 10.2 4.2 10 6.9C9.8 9.6 7.6 12.2 5.1 12.4C2.7 12.5 -0.1 10.2 -3.1 8.9C-6 7.6 -9.2 7.4 -10.3 5.8C-11.4 4.2 -10.4 1.3 -8.9 -0.6C-7.4 -2.5 -5.4 -3.3 -3.9 -5.5C-2.3 -7.7 -1.1 -11.3 1.3 -12.9C3.8 -14.5 7.6 -14.1 8.7 -11.8Z" fill="#cfcfcf"></path></g><g transform="translate(61 159)"><path d="M3.9 -5.1C5.3 -3.4 7 -2.5 9.4 0C11.8 2.4 14.9 6.4 14.3 9.1C13.8 11.8 9.6 13.3 6.1 12.7C2.7 12.1 0.1 9.6 -2.8 8.3C-5.6 6.9 -8.6 6.8 -10.6 5.3C-12.5 3.7 -13.3 0.6 -12.1 -1.4C-10.9 -3.4 -7.6 -4.3 -5.2 -5.8C-2.9 -7.3 -1.4 -9.5 -0.1 -9.4C1.2 -9.2 2.4 -6.8 3.9 -5.1Z" fill="#cfcfcf"></path></g><g transform="translate(575 261)"><path d="M4.3 -5.9C5.3 -4.2 5.8 -2.7 7.1 -0.5C8.4 1.7 10.5 4.5 10.1 6.3C9.6 8.1 6.6 8.9 4 8.9C1.4 9 -0.7 8.4 -3.3 7.9C-5.8 7.4 -8.8 7.1 -10.6 5.4C-12.5 3.7 -13.3 0.6 -12.8 -2.2C-12.2 -5 -10.4 -7.6 -8 -9C-5.7 -10.4 -2.8 -10.6 -0.6 -9.9C1.6 -9.2 3.2 -7.5 4.3 -5.9Z" fill="#cfcfcf"></path></g><g transform="translate(297 525)"><path d="M6.7 -6.8C9.2 -5.8 12.2 -4.3 12.1 -2.5C12 -0.7 8.9 1.4 6.7 2.5C4.4 3.7 3 4.1 1.6 4.9C0.1 5.7 -1.4 6.8 -3 6.8C-4.5 6.8 -6.2 5.7 -7.9 3.9C-9.6 2.2 -11.4 -0.1 -11.5 -2.5C-11.6 -4.9 -10 -7.4 -7.8 -8.4C-5.6 -9.4 -2.8 -8.8 -0.4 -8.4C2.1 -8 4.2 -7.7 6.7 -6.8Z" fill="#cfcfcf"></path></g><g transform="translate(11 294)"><path d="M7.7 -10.9C8.7 -8.2 7.5 -4.7 7.3 -1.9C7.1 0.9 7.9 3 7.4 4.6C6.9 6.2 5 7.4 2.7 8.9C0.4 10.4 -2.4 12.3 -4.3 11.7C-6.1 11 -7.1 7.8 -7.7 5.2C-8.4 2.6 -8.6 0.5 -8.1 -1.3C-7.6 -3 -6.3 -4.5 -4.8 -7.1C-3.3 -9.7 -1.7 -13.5 0.8 -14.5C3.3 -15.5 6.6 -13.6 7.7 -10.9Z" fill="#cfcfcf"></path></g><g transform="translate(298 410)"><path d="M4.6 -6.8C5.8 -4.5 6.5 -2.9 7.6 -0.7C8.8 1.4 10.3 4.2 10 6.8C9.7 9.3 7.4 11.8 5.2 11.4C2.9 11.1 0.6 7.8 -2 6.4C-4.7 5.1 -7.7 5.6 -9 4.6C-10.4 3.5 -10.1 0.9 -9.5 -1.6C-9 -4.1 -8.2 -6.4 -6.6 -8.7C-4.9 -11 -2.5 -13.2 -0.4 -12.7C1.7 -12.3 3.4 -9.2 4.6 -6.8Z" fill="#cfcfcf"></path></g><g transform="translate(79 340)"><path d="M7.8 -10.1C9 -8.3 8.2 -4.8 8.5 -1.7C8.9 1.4 10.4 4.1 9.7 5.8C9 7.5 6.1 8.1 3.8 7.8C1.4 7.6 -0.3 6.6 -2.2 5.9C-4.1 5.3 -6.2 5 -6.5 4C-6.9 2.9 -5.5 1.1 -5.5 -1.4C-5.5 -3.8 -6.9 -6.9 -6.3 -8.8C-5.6 -10.8 -2.8 -11.6 0.3 -11.9C3.3 -12.2 6.6 -12 7.8 -10.1Z" fill="#cfcfcf"></path></g><g transform="translate(737 293)"><path d="M8.1 -8.3C11.5 -6.9 15.9 -5.2 17.2 -2.3C18.5 0.5 16.8 4.6 14.8 9C12.8 13.4 10.5 18.1 6.8 19.9C3.1 21.8 -2.1 20.9 -6 18.5C-9.9 16.2 -12.5 12.5 -14.3 8.6C-16.1 4.8 -17 0.8 -15.5 -1.8C-13.9 -4.4 -9.8 -5.6 -6.8 -7.2C-3.8 -8.7 -1.9 -10.6 0.2 -10.9C2.4 -11.2 4.8 -9.8 8.1 -8.3Z" fill="#cfcfcf"></path></g><g transform="translate(242 102)"><path d="M3.3 -3.6C4.5 -3 5.7 -2.1 6.2 -0.9C6.7 0.4 6.4 1.9 5.7 3.5C5.1 5.1 4 6.6 2.2 8.2C0.4 9.8 -2.2 11.5 -3.6 10.7C-5 9.8 -5.1 6.4 -7 3.8C-8.8 1.1 -12.4 -0.9 -12.5 -2.6C-12.6 -4.3 -9.3 -5.7 -6.7 -6.1C-4 -6.4 -2 -5.7 -0.5 -5.1C1.1 -4.5 2.1 -4.2 3.3 -3.6Z" fill="#cfcfcf"></path></g><g transform="translate(601 142)"><path d="M8.9 -11.8C9.7 -9.8 7.5 -5.4 6.4 -2.5C5.3 0.4 5.3 1.7 4.7 2.7C4.1 3.7 2.9 4.3 1.2 6.1C-0.5 7.9 -2.8 10.9 -4.6 10.9C-6.4 11 -7.8 8.1 -9.2 5.4C-10.6 2.7 -12 0.2 -12.5 -3.1C-12.9 -6.3 -12.4 -10.2 -10.1 -11.9C-7.9 -13.6 -3.9 -13.2 0 -13.2C4 -13.2 8 -13.7 8.9 -11.8Z" fill="#cfcfcf"></path></g><g transform="translate(378 99)"><path d="M9.2 -10.5C12.6 -8 16.6 -5.8 16.9 -3.1C17.2 -0.5 13.7 2.7 10.9 4.9C8 7 5.7 8.1 3.2 9.3C0.7 10.5 -2 11.8 -4.7 11.5C-7.4 11.1 -10 9.2 -11.7 6.6C-13.3 4 -14.1 0.7 -13.7 -2.6C-13.3 -5.8 -11.8 -9 -9.3 -11.6C-6.8 -14.2 -3.4 -16.3 -0.3 -15.9C2.9 -15.6 5.7 -12.9 9.2 -10.5Z" fill="#cfcfcf"></path></g><g transform="translate(645 596)"><path d="M7.7 -8.4C9.5 -7.6 10.2 -4.8 10.3 -2.1C10.3 0.5 9.8 2.9 8.7 5.4C7.7 7.9 6.3 10.5 4.4 10.5C2.6 10.5 0.3 7.8 -1.7 6.4C-3.8 4.9 -5.7 4.6 -6.4 3.6C-7.2 2.5 -6.9 0.7 -6.6 -1.1C-6.2 -2.9 -5.8 -4.7 -4.7 -5.6C-3.6 -6.6 -1.8 -6.7 0.6 -7.4C2.9 -8.1 5.8 -9.3 7.7 -8.4Z" fill="#cfcfcf"></path></g><g transform="translate(707 413)"><path d="M4.3 -6.4C5.2 -4.5 5.1 -2.7 5.7 -0.8C6.3 1.1 7.7 3.2 7.3 4.7C7 6.3 5.1 7.5 3.2 7.6C1.3 7.8 -0.5 7 -1.8 6.1C-3.2 5.1 -4.1 4 -4.6 2.8C-5.2 1.6 -5.4 0.3 -6.1 -2C-6.8 -4.3 -7.9 -7.6 -7 -9.5C-6.1 -11.5 -3 -12.1 -0.6 -11.4C1.7 -10.6 3.5 -8.4 4.3 -6.4Z" fill="#cfcfcf"></path></g><g transform="translate(739 105)"><path d="M12.5 -16.3C15 -12.8 15 -7.7 14.5 -3.6C13.9 0.5 12.8 3.6 10.8 5.4C8.8 7.2 5.8 7.6 2.8 9.5C-0.3 11.5 -3.6 15 -7.2 15.6C-10.9 16.1 -15 13.5 -16 10.1C-17 6.6 -14.9 2.2 -12.7 -0.7C-10.4 -3.6 -7.8 -5 -5.7 -8.5C-3.5 -12.1 -1.8 -17.9 1.6 -19.8C5 -21.7 10 -19.8 12.5 -16.3Z" fill="#cfcfcf"></path></g><g transform="translate(393 594)"><path d="M4.5 -5.2C6.7 -3.6 9.9 -2.9 11.7 -0.8C13.6 1.3 14.2 4.9 13 7.9C11.8 11 8.8 13.4 5.7 13.8C2.6 14.1 -0.6 12.2 -4.4 11.2C-8.1 10.2 -12.5 9.9 -13.8 7.9C-15.2 5.8 -13.6 1.8 -11.5 -0.7C-9.4 -3.1 -6.9 -4.2 -4.9 -5.9C-2.9 -7.5 -1.5 -9.8 -0.1 -9.6C1.2 -9.5 2.4 -6.9 4.5 -5.2Z" fill="#cfcfcf"></path></g><g transform="translate(896 333)"><path d="M7.1 -10.3C8.7 -7.2 9.1 -4.4 8.7 -2.2C8.2 0 6.9 1.6 6.5 5.1C6.1 8.6 6.6 14 4.7 16.1C2.7 18.3 -1.6 17.2 -5.8 15.8C-10.1 14.3 -14.4 12.5 -16.8 9.2C-19.3 5.9 -20 1.1 -19.1 -3.2C-18.1 -7.5 -15.4 -11.4 -12 -14.1C-8.5 -16.9 -4.3 -18.6 -0.7 -17.7C2.8 -16.8 5.5 -13.3 7.1 -10.3Z" fill="#cfcfcf"></path></g><g transform="translate(898 403)"><path d="M3.3 -4.2C4.9 -2.5 7.4 -2.1 7.6 -1.3C7.9 -0.4 5.9 0.9 4.8 2.8C3.7 4.6 3.6 7 2.5 7.9C1.3 8.7 -0.7 8.2 -3.3 7.8C-6 7.4 -9.2 7.3 -9.7 5.8C-10.3 4.4 -8.2 1.7 -6.9 -0.4C-5.6 -2.5 -5.1 -4 -4 -5.7C-3 -7.4 -1.5 -9.4 -0.3 -9C0.8 -8.6 1.6 -5.8 3.3 -4.2Z" fill="#cfcfcf"></path></g><g transform="translate(171 200)"><path d="M3.1 -3.5C4.2 -2.8 5.4 -2 7.4 0.1C9.5 2.2 12.5 5.6 12.3 8.1C12.1 10.7 8.6 12.5 5.4 12.7C2.2 12.9 -0.8 11.6 -3.7 10.4C-6.6 9.2 -9.4 8.1 -9.9 6.2C-10.4 4.3 -8.5 1.6 -8.1 -1.5C-7.6 -4.6 -8.6 -8 -7.5 -8.7C-6.4 -9.3 -3.2 -7.3 -1.1 -6C1 -4.7 2.1 -4.2 3.1 -3.5Z" fill="#cfcfcf"></path></g><g transform="translate(437 536)"><path d="M7.4 -8.2C8.8 -7.6 8.8 -4.6 10 -1.2C11.3 2.1 13.8 5.8 12.9 7.6C12 9.4 7.7 9.3 4.5 9C1.3 8.7 -0.7 8.2 -3.2 7.7C-5.6 7.3 -8.5 6.9 -10.9 5.1C-13.4 3.3 -15.4 0.1 -14.7 -2.3C-13.9 -4.8 -10.4 -6.4 -7.5 -6.9C-4.6 -7.3 -2.3 -6.4 0.3 -6.8C3 -7.2 5.9 -8.9 7.4 -8.2Z" fill="#cfcfcf"></path></g></g></svg>